# xmcd CD database file
#
# Track frame offsets:
#	150
#	18879
#	37126
#	59644
#	79927
#	102140
#	119228
#	139025
#	158575
#	180899
#	200449
#	223108
#	245127
#	267016
#	289719
#	318438
#
# Disc length: 4568 seconds
#
# Revision: 1
# Processed by: cddbd v1.5.2PL0 Copyright (c) Steve Scherf et al.
# Submitted via: CDex 1.51
#
DISCID=ea11d610
DTITLE=Various Artist - D's Salsa 1
DYEAR=2010
DGENRE=Salsa
TTITLE0=Angeles - Que Voy Hacer Sin Ti (salsa)
TTITLE1=Angeles ft Jimmy Saa and Junior Jein - Ya No Queda Nada (salsa)
TTITLE2=Antonio Cartagena - Ni Siquiera
TTITLE3=Charlie Palmieri - La Hija De Lola (salsa)
TTITLE4=Eddie Montalvo - Enamorado (salsa)
TTITLE5=Eddie santiago - Salsa romantica - La cita
TTITLE6=El Gran Combo - Me Libere (salsa)
TTITLE7=El Gran Combo - Ojos Chinos
TTITLE8=El Gran Combo - Un Verano en Nueva York
TTITLE9=El Gran Combo  - Ojitos chinos
TTITLE10=Elvis Crespo and Victor Manuelle - Salsa Cubana
TTITLE11=Frankie Ruiz - Todo comenzo bailando
TTITLE12=Frankie Ruiz  - Bailando
TTITLE13=Frankie Ruiz - Imposible Amor    
TTITLE14=Frankie Ruiz - La rueda - salsa
TTITLE15=Frankie Ruiz - Mujer
EXTD=YEAR: 2010
EXTT0=
EXTT1=
EXTT2=
EXTT3=
EXTT4=
EXTT5=
EXTT6=
EXTT7=
EXTT8=
EXTT9=
EXTT10=
EXTT11=
EXTT12=
EXTT13=
EXTT14=
EXTT15=
PLAYORDER=
